<?xml version="1.0" encoding="UTF-8"?>
<!DOCTYPE svg PUBLIC "-//W3C//DTD SVG 1.1//EN" "http://www.w3.org/Graphics/SVG/1.1/DTD/svg11.dtd">
<!-- Creator: CorelDRAW 2017 -->
<svg xmlns="http://www.w3.org/2000/svg" xml:space="preserve" width="851px" height="442px" version="1.1" style="shape-rendering:geometricPrecision; text-rendering:geometricPrecision; image-rendering:optimizeQuality; fill-rule:evenodd; clip-rule:evenodd"
viewBox="0 0 31.35 16.3"
 xmlns:xlink="http://www.w3.org/1999/xlink">
 <defs>
  <style type="text/css">
   <![CDATA[
    .str0 {stroke:#2B2A29;stroke-width:0.04}
    .str1 {stroke:#2B2A29;stroke-width:0.18;stroke-linecap:round;stroke-linejoin:round}
    .str2 {stroke:#FEFEFE;stroke-width:0.09;stroke-linecap:round;stroke-linejoin:round}
    .fil1 {fill:none}
    .fil3 {fill:#FEFEFE}
    .fil0 {fill:#C5C6C6}
    .fil2 {fill:#E31E24}
   ]]>
  </style>
 </defs>
 <g id="Слой_x0020_1">
  <metadata id="CorelCorpID_0Corel-Layer"/>
  <polygon class="fil0 str0" points="28.29,9.06 20.56,9.06 20.56,16.16 28.29,16.16 "/>
  <polygon class="fil0 str0" points="28.02,9.32 20.83,9.32 20.83,16.18 28.02,16.18 "/>
  <line class="fil1 str1" x1="29.04" y1="16.21" x2="19.89" y2= "16.21" />
  <line class="fil1 str0" x1="24.43" y1="9.31" x2="24.43" y2= "16.17" />
  <polygon class="fil0 str0" points="8.18,9.06 0.45,9.06 0.45,16.16 8.18,16.16 "/>
  <polygon class="fil0 str0" points="7.91,9.32 0.72,9.32 0.72,16.18 7.91,16.18 "/>
  <line class="fil1 str1" x1="8.93" y1="16.21" x2="0.09" y2= "16.21" />
  <line class="fil1 str0" x1="4.32" y1="9.31" x2="4.32" y2= "16.17" />
  <polygon class="fil0 str0" points="18.24,9.06 10.5,9.06 10.5,16.16 18.24,16.16 "/>
  <polygon class="fil0 str0" points="17.97,9.32 10.77,9.32 10.77,16.18 17.97,16.18 "/>
  <line class="fil1 str1" x1="18.99" y1="16.21" x2="9.84" y2= "16.21" />
  <line class="fil1 str0" x1="14.37" y1="9.31" x2="14.37" y2= "16.17" />
  <line class="fil1 str2" x1="3.7" y1="15.58" x2="3.7" y2= "9.88" />
  <line class="fil1 str2" x1="4.88" y1="12.73" x2="7.74" y2= "12.73" />
  <line class="fil1 str2" x1="14.97" y1="15.58" x2="14.97" y2= "9.88" />
  <line class="fil1 str2" x1="15.3" y1="12.73" x2="17.81" y2= "12.73" />
  <line class="fil1 str2" x1="23.82" y1="15.58" x2="23.82" y2= "9.88" />
  <line class="fil1 str2" x1="25.08" y1="15.58" x2="25.08" y2= "9.88" />
  <line class="fil1 str2" x1="13.77" y1="15.58" x2="13.77" y2= "9.88" />
  <line class="fil1 str2" x1="0.9" y1="12.78" x2="3.68" y2= "12.78" />
  <line class="fil1 str2" x1="10.99" y1="12.78" x2="13.71" y2= "12.78" />
  <line class="fil1 str2" x1="25.14" y1="12.73" x2="27.8" y2= "12.73" />
  <line class="fil1 str2" x1="21.08" y1="12.73" x2="23.81" y2= "12.73" />
  <path class="fil2" d="M25.08 15.13c0.28,0 0.5,0.23 0.5,0.51 0,0.28 -0.22,0.5 -0.5,0.5 -0.28,0 -0.51,-0.22 -0.51,-0.5 0,-0.28 0.23,-0.51 0.51,-0.51z"/>
  <polygon class="fil3" points="25.08,16.13 24.78,15.54 25.37,15.54 "/>
  <path class="fil2" d="M23.82 10.28c0.28,0 0.5,-0.23 0.5,-0.51 0,-0.28 -0.22,-0.5 -0.5,-0.5 -0.28,0 -0.51,0.22 -0.51,0.5 0,0.28 0.23,0.51 0.51,0.51z"/>
  <polygon class="fil3" points="23.82,9.28 23.52,9.87 24.11,9.87 "/>
  <path class="fil2" d="M15.47 9.77c0,-0.28 -0.22,-0.5 -0.5,-0.5 -0.28,0 -0.51,0.22 -0.51,0.5 0,0.28 0.23,0.51 0.51,0.51 0.28,0 0.5,-0.23 0.5,-0.51z"/>
  <polygon class="fil3" points="14.47,9.77 15.06,10.07 15.06,9.48 "/>
  <path class="fil2" d="M25.07 10.28c0.28,0 0.51,-0.23 0.51,-0.51 0,-0.28 -0.23,-0.5 -0.51,-0.5 -0.28,0 -0.5,0.22 -0.5,0.5 0,0.28 0.22,0.51 0.5,0.51z"/>
  <polygon class="fil3" points="25.07,9.28 24.78,9.87 25.37,9.87 "/>
  <path class="fil2" d="M23.79 15.13c0.28,0 0.51,0.23 0.51,0.51 0,0.28 -0.23,0.5 -0.51,0.5 -0.28,0 -0.5,-0.22 -0.5,-0.5 0,-0.28 0.22,-0.51 0.5,-0.51z"/>
  <polygon class="fil3" points="23.79,16.13 23.5,15.54 24.09,15.54 "/>
  <path class="fil2" d="M13.81 10.28c0.28,0 0.5,-0.23 0.5,-0.51 0,-0.28 -0.22,-0.5 -0.5,-0.5 -0.28,0 -0.51,0.22 -0.51,0.5 0,0.28 0.23,0.51 0.51,0.51z"/>
  <polygon class="fil3" points="13.81,9.28 13.51,9.87 14.1,9.87 "/>
  <path class="fil2" d="M13.78 15.13c0.28,0 0.51,0.23 0.51,0.51 0,0.28 -0.23,0.5 -0.51,0.5 -0.28,0 -0.5,-0.22 -0.5,-0.5 0,-0.28 0.22,-0.51 0.5,-0.51z"/>
  <polygon class="fil3" points="13.78,16.13 13.49,15.54 14.08,15.54 "/>
  <g id="_793340416">
   <polygon class="fil0 str0" points="11.47,0.03 6.96,0.03 6.96,7.16 11.47,7.16 "/>
   <polygon class="fil0 str0" points="11.19,0.28 7.23,0.28 7.23,7.16 11.19,7.16 "/>
   <line class="fil1 str1" x1="11.91" y1="7.17" x2="6.54" y2= "7.17" />
   <line class="fil1 str2" x1="7.8" y1="6.6" x2="7.8" y2= "0.9" />
   <line class="fil1 str2" x1="7.85" y1="3.75" x2="11" y2= "3.75" />
   <path class="fil2" d="M7.8 1.29c0.28,0 0.5,-0.22 0.5,-0.5 0,-0.28 -0.22,-0.51 -0.5,-0.51 -0.28,0 -0.51,0.23 -0.51,0.51 0,0.28 0.23,0.5 0.51,0.5z"/>
   <polygon class="fil3" points="7.8,0.3 7.5,0.88 8.09,0.88 "/>
   <path class="fil2" d="M7.8 6.15c0.28,0 0.5,0.22 0.5,0.5 0,0.28 -0.22,0.51 -0.5,0.51 -0.28,0 -0.51,-0.23 -0.51,-0.51 0,-0.28 0.23,-0.5 0.51,-0.5z"/>
   <polygon class="fil3" points="7.8,7.15 7.5,6.56 8.09,6.56 "/>
  </g>
  <path class="fil2" d="M15.47 15.64c0,-0.28 -0.22,-0.51 -0.5,-0.51 -0.28,0 -0.51,0.23 -0.51,0.51 0,0.28 0.23,0.5 0.51,0.5 0.28,0 0.5,-0.22 0.5,-0.5z"/>
  <polygon class="fil3" points="14.47,15.64 15.06,15.93 15.06,15.34 "/>
  <path class="fil2" d="M15.47 12.73c0,-0.27 -0.22,-0.5 -0.5,-0.5 -0.28,0 -0.51,0.23 -0.51,0.5 0,0.28 0.23,0.51 0.51,0.51 0.28,0 0.5,-0.23 0.5,-0.51z"/>
  <polygon class="fil3" points="14.47,12.73 15.06,13.03 15.06,12.44 "/>
  <path class="fil2" d="M3.75 10.28c0.28,0 0.51,-0.23 0.51,-0.51 0,-0.28 -0.23,-0.5 -0.51,-0.5 -0.28,0 -0.5,0.22 -0.5,0.5 0,0.28 0.22,0.51 0.5,0.51z"/>
  <polygon class="fil3" points="3.75,9.28 3.46,9.87 4.05,9.87 "/>
  <path class="fil2" d="M3.73 15.13c0.28,0 0.5,0.23 0.5,0.51 0,0.28 -0.22,0.5 -0.5,0.5 -0.28,0 -0.51,-0.22 -0.51,-0.5 0,-0.28 0.23,-0.51 0.51,-0.51z"/>
  <polygon class="fil3" points="3.73,16.13 3.43,15.54 4.02,15.54 "/>
  <path class="fil2" d="M5.42 12.73c0,-0.27 -0.23,-0.5 -0.51,-0.5 -0.28,0 -0.5,0.23 -0.5,0.5 0,0.28 0.22,0.51 0.5,0.51 0.28,0 0.51,-0.23 0.51,-0.51z"/>
  <polygon class="fil3" points="4.42,12.73 5.01,13.03 5.01,12.44 "/>
  <g id="_793342888">
   <polygon class="fil0 str0" points="30.82,0.08 26.31,0.08 26.31,7.21 30.82,7.21 "/>
   <polygon class="fil0 str0" points="30.55,0.33 26.58,0.33 26.58,7.21 30.55,7.21 "/>
   <line class="fil1 str1" x1="31.26" y1="7.22" x2="25.89" y2= "7.22" />
   <line class="fil1 str2" x1="27.24" y1="3.75" x2="30.35" y2= "3.75" />
   <line class="fil1 str2" x1="27.18" y1="6.6" x2="27.18" y2= "0.9" />
   <path class="fil2" d="M27.68 0.79c0,-0.28 -0.23,-0.51 -0.5,-0.51 -0.28,0 -0.51,0.23 -0.51,0.51 0,0.28 0.23,0.5 0.51,0.5 0.27,0 0.5,-0.22 0.5,-0.5z"/>
   <polygon class="fil3" points="26.68,0.79 27.27,1.08 27.27,0.49 "/>
   <path class="fil2" d="M27.68 6.65c0,-0.28 -0.23,-0.5 -0.5,-0.5 -0.28,0 -0.51,0.22 -0.51,0.5 0,0.28 0.23,0.51 0.51,0.51 0.27,0 0.5,-0.23 0.5,-0.51z"/>
   <polygon class="fil3" points="26.68,6.65 27.27,6.95 27.27,6.36 "/>
   <path class="fil2" d="M27.68 3.75c0,-0.28 -0.23,-0.51 -0.5,-0.51 -0.28,0 -0.51,0.23 -0.51,0.51 0,0.28 0.23,0.51 0.51,0.51 0.27,0 0.5,-0.23 0.5,-0.51z"/>
   <polygon class="fil3" points="26.68,3.75 27.27,4.05 27.27,3.45 "/>
  </g>
  <g id="_793344064">
   <polygon class="fil0 str0" points="24.37,0.02 19.86,0.02 19.86,7.16 24.37,7.16 "/>
   <polygon class="fil0 str0" points="24.1,0.27 20.13,0.27 20.13,7.16 24.1,7.16 "/>
   <line class="fil1 str1" x1="24.81" y1="7.17" x2="19.44" y2= "7.17" />
   <line class="fil1 str2" x1="20.68" y1="6.6" x2="20.68" y2= "0.9" />
   <line class="fil1 str2" x1="20.77" y1="3.75" x2="23.86" y2= "3.75" />
   <path class="fil2" d="M20.68 1.29c0.28,0 0.51,-0.22 0.51,-0.5 0,-0.28 -0.23,-0.51 -0.51,-0.51 -0.28,0 -0.5,0.23 -0.5,0.51 0,0.28 0.22,0.5 0.5,0.5z"/>
   <polygon class="fil3" points="20.68,0.3 20.39,0.88 20.98,0.88 "/>
   <path class="fil2" d="M20.68 6.15c0.28,0 0.51,0.22 0.51,0.5 0,0.28 -0.23,0.51 -0.51,0.51 -0.28,0 -0.5,-0.23 -0.5,-0.51 0,-0.28 0.22,-0.5 0.5,-0.5z"/>
   <polygon class="fil3" points="20.68,7.15 20.39,6.56 20.98,6.56 "/>
   <path class="fil2" d="M21.19 3.75c0,-0.28 -0.23,-0.51 -0.51,-0.51 -0.28,0 -0.5,0.23 -0.5,0.51 0,0.28 0.22,0.51 0.5,0.51 0.28,0 0.51,-0.23 0.51,-0.51z"/>
   <polygon class="fil3" points="20.19,3.75 20.78,4.05 20.78,3.45 "/>
  </g>
  <g id="_793345792">
   <polygon class="fil0 str0" points="17.92,0.08 13.41,0.08 13.41,7.21 17.92,7.21 "/>
   <polygon class="fil0 str0" points="17.65,0.33 13.68,0.33 13.68,7.21 17.65,7.21 "/>
   <line class="fil1 str1" x1="18.36" y1="7.22" x2="12.99" y2= "7.22" />
   <line class="fil1 str2" x1="14.3" y1="3.75" x2="17.45" y2= "3.75" />
   <line class="fil1 str2" x1="14.29" y1="6.6" x2="14.29" y2= "0.9" />
   <path class="fil2" d="M14.8 0.79c0,-0.28 -0.23,-0.51 -0.51,-0.51 -0.27,0 -0.5,0.23 -0.5,0.51 0,0.28 0.23,0.5 0.5,0.5 0.28,0 0.51,-0.22 0.51,-0.5z"/>
   <polygon class="fil3" points="13.8,0.79 14.39,1.08 14.39,0.49 "/>
   <path class="fil2" d="M14.8 6.65c0,-0.28 -0.23,-0.5 -0.51,-0.5 -0.27,0 -0.5,0.22 -0.5,0.5 0,0.28 0.23,0.51 0.5,0.51 0.28,0 0.51,-0.23 0.51,-0.51z"/>
   <polygon class="fil3" points="13.8,6.65 14.39,6.95 14.39,6.36 "/>
  </g>
  <g id="_793346416">
   <polygon class="fil0 str0" points="5.02,0.08 0.51,0.08 0.51,7.21 5.02,7.21 "/>
   <polygon class="fil0 str0" points="4.74,0.33 0.78,0.33 0.78,7.21 4.74,7.21 "/>
   <line class="fil1 str1" x1="5.46" y1="7.22" x2="0.09" y2= "7.22" />
   <line class="fil1 str2" x1="1.28" y1="3.75" x2="4.55" y2= "3.75" />
   <path class="fil2" d="M1.84 3.75c0,-0.28 -0.22,-0.51 -0.5,-0.51 -0.28,0 -0.51,0.23 -0.51,0.51 0,0.28 0.23,0.51 0.51,0.51 0.28,0 0.5,-0.23 0.5,-0.51z"/>
   <polygon class="fil3" points="0.85,3.75 1.44,4.05 1.44,3.45 "/>
  </g>
 </g>
</svg>
