<?xml version="1.0" encoding="UTF-8"?>
<!DOCTYPE svg PUBLIC "-//W3C//DTD SVG 1.1//EN" "http://www.w3.org/Graphics/SVG/1.1/DTD/svg11.dtd">
<!-- Creator: CorelDRAW 2017 -->
<svg xmlns="http://www.w3.org/2000/svg" xml:space="preserve" width="851px" height="435px" version="1.1" style="shape-rendering:geometricPrecision; text-rendering:geometricPrecision; image-rendering:optimizeQuality; fill-rule:evenodd; clip-rule:evenodd"
viewBox="0 0 31.35 16.03"
 xmlns:xlink="http://www.w3.org/1999/xlink">
 <defs>
  <style type="text/css">
   <![CDATA[
    .str0 {stroke:black;stroke-width:0.04}
    .str1 {stroke:black;stroke-width:0.18;stroke-linecap:round;stroke-linejoin:round}
    .str2 {stroke:white;stroke-width:0.15;stroke-linecap:round;stroke-linejoin:round}
    .fil2 {fill:none}
    .fil0 {fill:#9D9FA2}
    .fil1 {fill:#BBBDC0}
    .fil3 {fill:#ED1D24}
    .fil4 {fill:white}
   ]]>
  </style>
 </defs>
 <g id="Слой_x0020_1">
  <metadata id="CorelCorpID_0Corel-Layer"/>
  <polygon class="fil0 str0" points="5.02,0.03 0.51,0.03 0.51,7.18 5.02,7.18 "/>
  <polygon class="fil1 str0" points="4.75,0.28 0.78,0.28 0.78,7.18 4.75,7.18 "/>
  <line class="fil2 str1" x1="5.47" y1="7.19" x2="0.09" y2= "7.19" />
  <line class="fil2 str2" x1="1.28" y1="3.71" x2="4.55" y2= "3.71" />
  <path class="fil3" d="M1.85 3.71c0,-0.28 -0.23,-0.51 -0.51,-0.51 -0.28,0 -0.51,0.23 -0.51,0.51 0,0.28 0.23,0.51 0.51,0.51 0.28,0 0.51,-0.23 0.51,-0.51z"/>
  <polygon class="fil4" points="0.85,3.71 1.44,4.01 1.44,3.42 "/>
  <polygon class="fil0 str0" points="10.93,0.03 6.41,0.03 6.41,7.18 10.93,7.18 "/>
  <polygon class="fil1 str0" points="10.65,0.28 6.68,0.28 6.68,7.18 10.65,7.18 "/>
  <line class="fil2 str1" x1="11.37" y1="7.19" x2="5.99" y2= "7.19" />
  <path class="fil2 str2" d="M7.24 3.77l0 -2.86m0.09 2.85l3.09 0"/>
  <path class="fil3" d="M7.24 1.31c0.28,0 0.5,-0.23 0.5,-0.51 0,-0.28 -0.22,-0.51 -0.5,-0.51 -0.28,0 -0.51,0.23 -0.51,0.51 0,0.28 0.23,0.51 0.51,0.51z"/>
  <polygon class="fil4" points="7.24,0.31 6.94,0.9 7.53,0.9 "/>
  <path class="fil3" d="M7.74 3.77c0,-0.28 -0.22,-0.51 -0.5,-0.51 -0.28,0 -0.51,0.23 -0.51,0.51 0,0.27 0.23,0.5 0.51,0.5 0.28,0 0.5,-0.23 0.5,-0.5z"/>
  <polygon class="fil4" points="6.74,3.77 7.33,4.06 7.33,3.47 "/>
  <polygon class="fil0 str0" points="18.5,8.77 10.75,8.77 10.75,15.9 18.5,15.9 "/>
  <polygon class="fil1 str0" points="18.23,9.03 11.02,9.03 11.02,15.91 18.23,15.91 "/>
  <line class="fil2 str1" x1="19.25" y1="15.94" x2="10.08" y2= "15.94" />
  <line class="fil2 str0" x1="14.62" y1="9.03" x2="14.62" y2= "15.9" />
  <path class="fil2 str2" d="M15.22 12.45l0 -2.85m0.34 2.86l2.51 0m-4.05 2.85l0 -5.71m-2.79 2.9l2.73 0"/>
  <path class="fil3" d="M15.22 9.99c0.28,0 0.51,-0.22 0.51,-0.5 0,-0.28 -0.23,-0.51 -0.51,-0.51 -0.28,0 -0.5,0.23 -0.5,0.51 0,0.28 0.22,0.5 0.5,0.5z"/>
  <polygon class="fil4" points="15.22,8.99 14.93,9.58 15.52,9.58 "/>
  <path class="fil3" d="M14.06 9.99c0.28,0 0.51,-0.22 0.51,-0.5 0,-0.28 -0.23,-0.51 -0.51,-0.51 -0.28,0 -0.51,0.23 -0.51,0.51 0,0.28 0.23,0.5 0.51,0.5z"/>
  <polygon class="fil4" points="14.06,8.99 13.76,9.58 14.36,9.58 "/>
  <path class="fil3" d="M14.03 14.86c0.28,0 0.51,0.23 0.51,0.51 0,0.28 -0.23,0.5 -0.51,0.5 -0.28,0 -0.5,-0.22 -0.5,-0.5 0,-0.28 0.22,-0.51 0.5,-0.51z"/>
  <polygon class="fil4" points="14.03,15.86 13.74,15.27 14.33,15.27 "/>
  <path class="fil3" d="M15.73 12.46c0,-0.28 -0.23,-0.51 -0.51,-0.51 -0.28,0 -0.5,0.23 -0.5,0.51 0,0.28 0.22,0.5 0.5,0.5 0.28,0 0.51,-0.22 0.51,-0.5z"/>
  <polygon class="fil4" points="14.73,12.46 15.32,12.75 15.32,12.16 "/>
  <polygon class="fil0 str0" points="8.51,8.77 0.75,8.77 0.75,15.9 8.51,15.9 "/>
  <polygon class="fil1 str0" points="8.24,9.03 1.02,9.03 1.02,15.91 8.24,15.91 "/>
  <line class="fil2 str1" x1="9.26" y1="15.94" x2="0.09" y2= "15.94" />
  <line class="fil2 str0" x1="4.63" y1="9.03" x2="4.63" y2= "15.9" />
  <path class="fil2 str2" d="M5.23 12.48l0 -2.88m0.34 2.86l2.51 0m-4.05 0.04l0 -2.9m-2.79 2.9l2.78 0"/>
  <path class="fil3" d="M5.23 9.99c0.28,0 0.51,-0.22 0.51,-0.5 0,-0.28 -0.23,-0.51 -0.51,-0.51 -0.28,0 -0.51,0.23 -0.51,0.51 0,0.28 0.23,0.5 0.51,0.5z"/>
  <polygon class="fil4" points="5.23,8.99 4.93,9.58 5.53,9.58 "/>
  <path class="fil3" d="M4.07 9.99c0.28,0 0.5,-0.22 0.5,-0.5 0,-0.28 -0.22,-0.51 -0.5,-0.51 -0.28,0 -0.51,0.23 -0.51,0.51 0,0.28 0.23,0.5 0.51,0.5z"/>
  <polygon class="fil4" points="4.07,8.99 3.77,9.58 4.36,9.58 "/>
  <path class="fil3" d="M5.74 12.46c0,-0.28 -0.23,-0.51 -0.51,-0.51 -0.28,0 -0.51,0.23 -0.51,0.51 0,0.28 0.23,0.5 0.51,0.5 0.28,0 0.51,-0.22 0.51,-0.5z"/>
  <polygon class="fil4" points="4.74,12.46 5.33,12.75 5.33,12.16 "/>
  <polygon class="fil0 str0" points="30.51,0.02 22.76,0.02 22.76,7.15 30.51,7.15 "/>
  <polygon class="fil1 str0" points="30.24,0.28 23.03,0.28 23.03,7.16 30.24,7.16 "/>
  <line class="fil2 str1" x1="31.26" y1="7.19" x2="22.09" y2= "7.19" />
  <line class="fil2 str0" x1="26.64" y1="0.28" x2="26.64" y2= "7.16" />
  <path class="fil2 str2" d="M27.57 3.71l2.51 0m-4.05 2.85l0 -5.71m-2.79 2.9l2.73 0"/>
  <path class="fil3" d="M26.07 1.24c0.28,0 0.51,-0.22 0.51,-0.5 0,-0.28 -0.23,-0.51 -0.51,-0.51 -0.28,0 -0.51,0.23 -0.51,0.51 0,0.28 0.23,0.5 0.51,0.5z"/>
  <polygon class="fil4" points="26.07,0.24 25.78,0.83 26.37,0.83 "/>
  <path class="fil3" d="M26.05 6.11c0.28,0 0.5,0.23 0.5,0.51 0,0.28 -0.22,0.5 -0.5,0.5 -0.28,0 -0.51,-0.22 -0.51,-0.5 0,-0.28 0.23,-0.51 0.51,-0.51z"/>
  <polygon class="fil4" points="26.05,7.11 25.75,6.52 26.34,6.52 "/>
  <path class="fil3" d="M27.74 3.71c0,-0.28 -0.22,-0.51 -0.5,-0.51 -0.28,0 -0.51,0.23 -0.51,0.51 0,0.28 0.23,0.5 0.51,0.5 0.28,0 0.5,-0.22 0.5,-0.5z"/>
  <polygon class="fil4" points="26.74,3.71 27.33,4 27.33,3.41 "/>
  <polygon class="fil0 str0" points="20.72,0.02 12.97,0.02 12.97,7.15 20.72,7.15 "/>
  <polygon class="fil1 str0" points="20.45,0.28 13.24,0.28 13.24,7.16 20.45,7.16 "/>
  <line class="fil2 str1" x1="21.47" y1="7.19" x2="12.3" y2= "7.19" />
  <line class="fil2 str0" x1="16.84" y1="0.28" x2="16.84" y2= "7.16" />
  <path class="fil2 str2" d="M17.78 3.71l2.51 0m-4.05 0.04l0 -2.9m-2.79 2.9l2.78 0"/>
  <path class="fil3" d="M16.28 1.24c0.28,0 0.51,-0.22 0.51,-0.5 0,-0.28 -0.23,-0.51 -0.51,-0.51 -0.28,0 -0.51,0.23 -0.51,0.51 0,0.28 0.23,0.5 0.51,0.5z"/>
  <polygon class="fil4" points="16.28,0.24 15.98,0.83 16.57,0.83 "/>
  <path class="fil3" d="M17.95 3.71c0,-0.28 -0.23,-0.51 -0.51,-0.51 -0.28,0 -0.51,0.23 -0.51,0.51 0,0.28 0.23,0.5 0.51,0.5 0.28,0 0.51,-0.22 0.51,-0.5z"/>
  <polygon class="fil4" points="16.95,3.71 17.54,4 17.54,3.41 "/>
 </g>
</svg>
